<?xml version="1.0" encoding="UTF-8"?>
<svg xmlns="http://www.w3.org/2000/svg" xmlns:xlink="http://www.w3.org/1999/xlink" width="2000" height="2000" viewBox="0 0 2000 2000">

<path fill-rule="evenodd" fill="rgb(94.921875%, 97.264099%, 99.21875%)" fill-opacity="1" d="M 1908.238281 1915.15625 L 1889.179688 1915.15625 C 1888.300781 1915.15625 1887.589844 1915.871094 1887.589844 1916.746094 L 1887.589844 1935.800781 C 1887.589844 1936.679688 1888.300781 1937.394531 1889.179688 1937.394531 L 1908.238281 1937.394531 C 1909.109375 1937.394531 1909.828125 1936.679688 1909.828125 1935.800781 L 1909.828125 1916.746094 C 1909.828125 1915.871094 1909.109375 1915.15625 1908.238281 1915.15625 "/>
<path fill-rule="evenodd" fill="rgb(94.921875%, 97.264099%, 99.21875%)" fill-opacity="1" d="M 1865.28125 1916.171875 L 1847.089844 1916.171875 C 1846.261719 1916.171875 1845.578125 1916.855469 1845.578125 1917.691406 L 1845.578125 1935.875 C 1845.578125 1936.710938 1846.261719 1937.394531 1847.089844 1937.394531 L 1865.28125 1937.394531 C 1866.109375 1937.394531 1866.800781 1936.710938 1866.800781 1935.875 L 1866.800781 1917.691406 C 1866.800781 1916.855469 1866.109375 1916.171875 1865.28125 1916.171875 "/>
<path fill-rule="evenodd" fill="rgb(94.921875%, 97.264099%, 99.21875%)" fill-opacity="1" d="M 1822.320312 1917.1875 L 1805.011719 1917.1875 C 1804.210938 1917.1875 1803.558594 1917.839844 1803.558594 1918.636719 L 1803.558594 1935.949219 C 1803.558594 1936.742188 1804.210938 1937.394531 1805.011719 1937.394531 L 1822.320312 1937.394531 C 1823.121094 1937.394531 1823.769531 1936.742188 1823.769531 1935.949219 L 1823.769531 1918.636719 C 1823.769531 1917.839844 1823.121094 1917.1875 1822.320312 1917.1875 "/>
<path fill-rule="evenodd" fill="rgb(94.921875%, 97.264099%, 99.21875%)" fill-opacity="1" d="M 1779.371094 1918.207031 L 1762.929688 1918.207031 C 1762.171875 1918.207031 1761.550781 1918.824219 1761.550781 1919.582031 L 1761.550781 1936.019531 C 1761.550781 1936.777344 1762.171875 1937.394531 1762.929688 1937.394531 L 1779.371094 1937.394531 C 1780.121094 1937.394531 1780.738281 1936.777344 1780.738281 1936.019531 L 1780.738281 1919.582031 C 1780.738281 1918.824219 1780.121094 1918.207031 1779.371094 1918.207031 "/>
<path fill-rule="evenodd" fill="rgb(94.921875%, 97.264099%, 99.21875%)" fill-opacity="1" d="M 1736.410156 1919.222656 L 1720.839844 1919.222656 C 1720.128906 1919.222656 1719.539062 1919.808594 1719.539062 1920.523438 L 1719.539062 1936.09375 C 1719.539062 1936.808594 1720.128906 1937.394531 1720.839844 1937.394531 L 1736.410156 1937.394531 C 1737.128906 1937.394531 1737.710938 1936.808594 1737.710938 1936.09375 L 1737.710938 1920.523438 C 1737.710938 1919.808594 1737.128906 1919.222656 1736.410156 1919.222656 "/>
<path fill-rule="evenodd" fill="rgb(94.921875%, 97.264099%, 99.21875%)" fill-opacity="1" d="M 1693.460938 1920.238281 L 1678.761719 1920.238281 C 1678.078125 1920.238281 1677.53125 1920.792969 1677.53125 1921.46875 L 1677.53125 1936.167969 C 1677.53125 1936.84375 1678.078125 1937.394531 1678.761719 1937.394531 L 1693.460938 1937.394531 C 1694.128906 1937.394531 1694.679688 1936.84375 1694.679688 1936.167969 L 1694.679688 1921.46875 C 1694.679688 1920.792969 1694.128906 1920.238281 1693.460938 1920.238281 "/>
<path fill-rule="evenodd" fill="rgb(94.921875%, 97.264099%, 99.21875%)" fill-opacity="1" d="M 1650.5 1921.257812 L 1636.671875 1921.257812 C 1636.039062 1921.257812 1635.519531 1921.777344 1635.519531 1922.414062 L 1635.519531 1936.238281 C 1635.519531 1936.875 1636.039062 1937.394531 1636.671875 1937.394531 L 1650.5 1937.394531 C 1651.140625 1937.394531 1651.648438 1936.875 1651.648438 1936.238281 L 1651.648438 1922.414062 C 1651.648438 1921.777344 1651.140625 1921.257812 1650.5 1921.257812 "/>
<path fill-rule="evenodd" fill="rgb(94.921875%, 97.264099%, 99.21875%)" fill-opacity="1" d="M 1607.539062 1922.273438 L 1594.589844 1922.273438 C 1593.988281 1922.273438 1593.511719 1922.761719 1593.511719 1923.355469 L 1593.511719 1936.3125 C 1593.511719 1936.90625 1593.988281 1937.394531 1594.589844 1937.394531 L 1607.539062 1937.394531 C 1608.140625 1937.394531 1608.628906 1936.90625 1608.628906 1936.3125 L 1608.628906 1923.355469 C 1608.628906 1922.761719 1608.140625 1922.273438 1607.539062 1922.273438 "/>
<path fill-rule="evenodd" fill="rgb(94.921875%, 97.264099%, 99.21875%)" fill-opacity="1" d="M 1564.589844 1923.292969 L 1552.5 1923.292969 C 1551.949219 1923.292969 1551.488281 1923.746094 1551.488281 1924.300781 L 1551.488281 1936.386719 C 1551.488281 1936.941406 1551.949219 1937.394531 1552.5 1937.394531 L 1564.589844 1937.394531 C 1565.140625 1937.394531 1565.601562 1936.941406 1565.601562 1936.386719 L 1565.601562 1924.300781 C 1565.601562 1923.746094 1565.140625 1923.292969 1564.589844 1923.292969 "/>
<path fill-rule="evenodd" fill="rgb(0.389099%, 44.309998%, 74.804688%)" fill-opacity="1" d="M 1930.140625 1000.039062 C 1930.140625 488.441406 1511.558594 69.859375 999.960938 69.859375 C 488.363281 69.859375 69.78125 488.441406 69.78125 1000.039062 C 69.78125 1511.636719 488.363281 1930.21875 999.960938 1930.21875 C 1511.558594 1930.21875 1930.140625 1511.636719 1930.140625 1000.039062 "/>
<path fill-rule="evenodd" fill="rgb(1.179504%, 34.910583%, 56.054688%)" fill-opacity="1" d="M 1930.140625 1000.039062 C 1930.140625 939.960938 1924.289062 881.191406 1913.28125 824.210938 L 1528.140625 497.800781 L 473.578125 497.800781 L 471.320312 1323.410156 L 557.859375 1555.148438 L 991.921875 1930.113281 C 994.601562 1930.136719 997.273438 1930.21875 999.960938 1930.21875 C 1511.558594 1930.21875 1930.140625 1511.636719 1930.140625 1000.039062 "/>
<path fill-rule="nonzero" fill="rgb(100%, 100%, 100%)" fill-opacity="1" d="M 1528.140625 497.800781 C 1528.140625 468.621094 1504.449219 444.929688 1475.269531 444.929688 L 526.445312 444.929688 C 497.265625 444.929688 473.578125 468.621094 473.578125 497.800781 C 473.578125 526.980469 497.265625 550.671875 526.445312 550.671875 L 1475.269531 550.671875 C 1504.449219 550.671875 1528.140625 526.980469 1528.140625 497.800781 "/>
<path fill-rule="nonzero" fill="rgb(100%, 100%, 100%)" fill-opacity="1" d="M 524.1875 1555.148438 C 495.007812 1555.148438 471.320312 1531.460938 471.320312 1502.28125 L 471.320312 726.949219 C 471.320312 697.769531 495.007812 674.078125 524.1875 674.078125 L 911.859375 674.078125 C 941.039062 674.078125 964.714844 697.769531 964.714844 726.949219 L 964.714844 1502.28125 C 964.714844 1531.460938 941.039062 1555.148438 911.859375 1555.148438 Z M 864.703125 1419.816406 L 864.703125 809.410156 C 864.703125 792.078125 850.523438 777.898438 833.191406 777.898438 L 602.84375 777.898438 C 585.511719 777.898438 571.332031 792.078125 571.332031 809.410156 L 571.332031 1419.816406 C 571.332031 1437.148438 585.511719 1451.328125 602.84375 1451.328125 L 833.191406 1451.328125 C 850.523438 1451.328125 864.703125 1437.148438 864.703125 1419.816406 "/>
<path fill-rule="nonzero" fill="rgb(100%, 100%, 100%)" fill-opacity="1" d="M 1120.949219 674.078125 L 1476.890625 674.078125 C 1504.699219 674.078125 1528.601562 701.621094 1528.601562 729.5 L 1528.601562 1110.414062 C 1528.601562 1138.296875 1504.699219 1167.476562 1476.890625 1167.476562 L 1120.949219 1167.476562 C 1093.148438 1167.476562 1070.449219 1138.296875 1070.449219 1110.414062 L 1070.449219 729.5 C 1070.449219 701.621094 1093.148438 674.078125 1120.949219 674.078125 "/>
</svg>
